<?xml version="1.0" encoding="UTF-8"?>
<svg id="Capa_1" data-name="Capa 1" xmlns="http://www.w3.org/2000/svg" version="1.1" viewBox="0 0 65.8 75.5">
  <defs>
    <style>
      .cls-1 {
        fill: #664fa1;
        stroke-width: 0px;
      }
    </style>
  </defs>
  <path class="cls-1" d="M28.7,51c1.1-.3,2.1-.7,2.9-1.3.8-.6,1.5-1.4,2-2.3.5-.9.8-2.1.8-3.4s-.4-3-1.2-4.1-2-1.9-3.5-2.4c1.2-.6,2-1.3,2.6-2.1.6-.9.9-1.9.9-3.2s-.2-2.2-.6-3c-.4-.8-1-1.5-1.7-2s-1.6-.8-2.6-1.1c-1-.2-2.1-.3-3.4-.3h-12.1v25.8h12.5c1.2,0,2.3,0,3.4-.4,0,0,0-.2,0-.2ZM18.5,30h5.3c.5,0,1,0,1.5.1.5,0,.9.2,1.2.5.4.2.7.5.9.9.2.4.3.9.3,1.5,0,1.1-.3,1.9-1,2.3-.7.5-1.5.7-2.5.7h-5.7v-6h0ZM18.5,47v-7.1h6.2c1.2,0,2.2.3,3,.8.7.6,1.1,1.5,1.1,2.8s-.1,1.2-.3,1.7c-.2.4-.5.8-.9,1-.4.3-.8.4-1.3.5s-1,.2-1.6.2h-6.2Z"/>
  <path class="cls-1" d="M38.6,49.2c.8.9,1.8,1.5,3,2s2.5.7,4,.7,3.9-.5,5.4-1.5,2.6-2.6,3.3-4.8h-4.5c-.2.6-.6,1.1-1.4,1.7-.7.5-1.6.8-2.7.8s-2.5-.4-3.3-1.1c-.8-.7-1.3-2.1-1.3-3.6h13.5c0-1.4,0-2.8-.4-4.2-.3-1.3-.9-2.5-1.6-3.5-.8-1-1.7-1.9-2.9-2.5s-2.6-.9-4.1-.9-2.7.3-3.9.8-2.2,1.2-3,2.1c-.8.9-1.5,1.9-2,3.1-.5,1.2-.7,2.5-.7,3.9s.2,2.8.7,4,1.1,2.2,1.9,3.1h0ZM41.4,38.8c0-.5.4-.9.7-1.3.3-.4.8-.8,1.3-1,.5-.3,1.2-.4,2-.4,1.3,0,2.3.4,2.9,1,.6.7,1.1,1.6,1.2,3h-8.3c0-.4,0-.8.2-1.2h0Z"/>
  <rect class="cls-1" x="40.2" y="27.4" width="10.4" height="2.5"/>
  <path class="cls-1" d="M1.5,6.5v64.5h64.5V6.5H1.5ZM62,67H5.5V10.5h56.5v56.5Z"/>
</svg>