<?xml version="1.0" encoding="UTF-8"?>
<svg id="Capa_1" data-name="Capa 1" xmlns="http://www.w3.org/2000/svg" version="1.1" viewBox="0 0 141.4 141.4">
  <defs>
    <style>
      .cls-1 {
        fill: #664fa1;
        stroke-width: 0px;
      }
    </style>
  </defs>
  <path class="cls-1" d="M70.7,0C31.7,0,0,31.7,0,70.7s31.7,70.7,70.7,70.7,70.7-31.7,70.7-70.7S109.8,0,70.7,0ZM89.4,128.4h-.5c-.8,0-1.6-.3-2.3-.8-.6-.6-.9-1.4-.8-2.2v-16.6c0-2.8-.3-4.1-.9-6.1s-1.7-3.8-3.2-5.2c4.1-.4,8.1-1.3,12-2.8,3.3-1.2,6.2-3.2,8.6-5.7s4.2-5.6,5.2-8.9c1.3-4.1,1.9-8.3,1.8-12.6,0-3-.5-5.9-1.5-8.7-1.1-2.8-2.6-5.4-4.7-7.6.4-1.1.8-2.3,1-3.4.2-1.2.3-2.4.3-3.6s-.2-3.1-.5-4.6-.8-3-1.3-4.5h-1.3c-1.4,0-2.7.2-4,.7-1.4.4-2.8.9-4.1,1.5-1.3.6-2.6,1.3-3.9,2s-2.4,1.5-3.4,2.1c-9.9-2.8-20.4-2.8-30.3,0-1.1-.7-2.2-1.5-3.4-2.1-1.3-.8-2.6-1.4-4-2-1.3-.6-2.7-1.1-4.2-1.5-1.3-.4-2.6-.6-3.9-.7h-1.2c-.6,1.5-1,3-1.4,4.5-.3,1.5-.5,3-.5,4.6s0,2.4.3,3.6c.2,1.2.5,2.3.9,3.4-2,2.2-3.6,4.8-4.7,7.6-1,2.8-1.6,5.7-1.5,8.7-.1,4.2.5,8.4,1.7,12.5,1.1,3.3,2.8,6.4,5.2,8.9s5.4,4.4,8.6,5.7c3.8,1.5,7.9,2.4,12,2.8-1.1,1-2.1,2.3-2.7,3.7-.6,1.4-1,2.9-1.2,4.4-2.2,1-4.5,1.6-6.9,1.6s-4.4-.5-6.3-1.8c-1.8-1.3-3.3-3-4.4-4.9-.5-.8-1.1-1.5-1.7-2.3-.7-.7-1.4-1.4-2.2-2s-1.6-1.1-2.5-1.4c-.9-.4-1.9-.6-2.8-.6s-.5,0-.7,0h-1c-.3,0-.5.2-.8.4-.2,0-.4.3-.4.6.1.6.4,1.1.8,1.4.5.4,1,.8,1.4,1h.2c.8.7,1.5,1.4,2.3,2.1.7.6,1.3,1.2,1.8,1.9.5.7,1,1.4,1.4,2.2.4.8.9,1.7,1.4,2.7,1.1,2.8,3.1,5.2,5.6,6.7,2.7,1.4,5.7,2.1,8.7,2.1s2.1,0,3.1-.2,2-.3,3-.5v10.3c0,1.6-1.2,3-2.8,3.1h-.7C20.2,118.1,2.8,83.9,13,52,23.2,20.1,57.5,2.7,89.4,13c31.9,10.3,49.3,44.5,39,76.3-6,18.5-20.5,33.1-39,39.1h0Z"/>
</svg>