<?xml version="1.0" encoding="UTF-8"?>
<svg id="Capa_1" data-name="Capa 1" xmlns="http://www.w3.org/2000/svg" version="1.1" viewBox="0 0 131.4 131.4">
  <defs>
    <style>
      .cls-1 {
        fill: #664fa1;
        fill-rule: evenodd;
        stroke-width: 0px;
      }
    </style>
  </defs>
  <path class="cls-1" d="M26.3,0C11.8,0,0,11.8,0,26.3v78.8c0,14.5,11.8,26.3,26.3,26.3h78.8c14.5,0,26.3-11.8,26.3-26.3V26.3c0-14.5-11.8-26.3-26.3-26.3H26.3ZM13.1,26.3c0-7.3,5.9-13.1,13.1-13.1h78.8c7.3,0,13.1,5.9,13.1,13.1v78.8c0,7.3-5.9,13.1-13.1,13.1H26.3c-7.3,0-13.1-5.9-13.1-13.1V26.3h0ZM46,59.1c0-3.6-2.9-6.6-6.6-6.6s-6.6,2.9-6.6,6.6v39.4c0,3.6,2.9,6.6,6.6,6.6s6.6-2.9,6.6-6.6v-39.4ZM49.3,36.1c0,5.4-4.4,9.9-9.9,9.9s-9.9-4.4-9.9-9.9,4.4-9.9,9.9-9.9,9.9,4.5,9.9,9.9ZM65.7,52.5c2.2,0,4.2,1.1,5.4,2.8,3.4-1.8,7.1-2.8,11-2.8,14.2,0,23,12.6,23,23.5h0v.2h0v.2h0v.2h0v.2h0v.2h0v.2-.2h0v.2h0v.2h0v.2h0v.2h0v.2h0v.2h0v.2h0v.2h0v-.6h0v.2h0v.2h0v.2h0v.2h0v.2h0v.2h0v.2h0v.2h0v-.6h0v.2h0v.2h0v.2h0v.2h0v.2h0v.2h0v.2h0v.2-.6h0v.2h0v.2h0v.2h0v.2h0v.2h0v.2h0v.2h0v.2-.6h0v.2h0v.2h0v.2h0v.2h0v.2h0v.2h0v.2h0v-.4h0v.2h0v.2h0v.2h0v.2h0v.2h0v.2h0v.2h0v-.4h0v.2h0v.2h0v.2h0v.2h0v.2h0v.2h0v.2h0v-.4h0v.2h0v.2h0v.2h0v.2h0v.2h0v.2h0v.2h0v-.4h0v.2h0v.2h0v.2h0v.2h0v.2h0v.2h0v.2h0v-.4h0v.2h0v.2h0v.2h0v.2h0v.2h0v.2h0v.2h0v-.4h0v.2h0v.2h0v.2h0v.2h0v.2h0v.2h0v.2h0v.2-.6h0v.2h0v.2h0v.2h0v.2h0v.2h0v.2h0v.2h0v.2-.6h0v.2h0v.2h0v.2h0v.2h0v.2h0v.2h0v.2h0v.2h0v-.6h0v.2h0v.2h0v.2h0v.2h0v.2h0v.2h0v.2h0v.2-.6h0v.2h0v.2h0v.2h0v.2h0v.2h0v.2h0v.2h0v.2h0v.2-.8h0c0,3.7-2.9,6.7-6.6,6.7s-6.6-2.9-6.6-6.6h0v-.2h0v-.2h0v-.2h0v-.2h0v-.2h0v-.2h0v-.2h0v-.2h0v-.2h0v.7h0v-.2h0v-.2h0v-.2h0v-.2h0v-.2h0v-.2h0v-.2h0v-.2.6h0v-.2h0v-.2h0v-.2h0v-.2h0v-.2h0v-.2h0v-.2h0v-.2h0v.6h0v-.2h0v-.2h0v-.2h0v-.2h0v-.2h0v-.2h0v-.2h0v-.2.6h0v-.2h0v-.2h0v-.2h0v-.2h0v-.2h0v-.2h0v-.2h0v-.2.6h0v-.2h0v-.2h0v-.2h0v-.2h0v-.2h0v-.2h0v-.2h0v.4h0v-.2h0v-.2h0v-.2h0v-.2h0v-.2h0v-.2h0v-.2h0v.4h0v-.2h0v-.2h0v-.2h0v-.2h0v-.2h0v-.2h0v-.2h0v.4h0v-.2h0v-.2h0v-.2h0v-.2h0v-.2h0v-.2h0v-.2h0v.4h0v-.2h0v-.2h0v-.2h0v-.2h0v-.2h0v-.2h0v-.2h0v.4h0v-.2h0v-.2h0v-.2h0v-.2h0v-.2h0v-.2h0v-.2h0v.4h0v-.2h0v-.2h0v-.2h0v-.2h0v-.2h0v-.2h0v-.2h0v-.2.6h0v-.2h0v-.2h0v-.2h0v-.2h0v-.2h0v-.2h0v-.2h0v-.2.6h0v-.2h0v-.2h0v-.2h0v-.2h0v-.2h0v-.2h0v-.2h0v-.2h0v.6h0v-.2h0v-.2h0v-.2h0v-.2h0v-.2h0v-.2h0v-.2h0v-.2h0v.6h0v-.2h0v-.2h0v-.2h0v-.2h0v-.2h0v-.2h0c0-5.1-4.3-10.4-9.9-10.4s-7.2,1.9-9.9,6.3h0v.2h0v.2h0v.2h0v.2h0v.2h0v.2h0v.2h0v.2h0v.2h0v.2h0v.2h0v.2h0v.2h0v.2h0v.2h0v.2h0v.2h0v.2-.2h0v.2h0v.2h0v.2h0v.2h0v.2h0v.2-.2h0v.2h0v.2h0v.2h0v.2h0v.2h0v.2-.2h0v.2h0v.2h0v.2h0v.2h0v.2h0v.2h0v-.2h0v.2h0v.2h0v.2h0v.2h0v.2h0v.2-.2h0v.2h0v.2h0v.2h0v.2h0v.2h0v.2-.2h0v.2h0v.2h0v.2h0v.2h0v.2h0v.2-.2h0v.2h0v.2h0v.2h0v.2h0v.2h0v.2-.2h0v.2h0v.2h0v.2h0v.2h0v.2h0v.2h0v-.2h0v.2h0v.2h0v.2h0v.2h0v.2h0v.2-.2h0v.2h0v.2h0v.2h0v.2h0v.2h0v.2-.2h0v.2h0v.2h0v.2h0v.2h0v.2h0v.2-.2h0v.2h0v.2h0v.2h0v.2h0v.2h0v.2h0v-.2h0v.2h0v.2h0v.2h0v.2h0v.2h0v.2h0v-.2h0v.2h0v.2h0v.2h0v.2h0v.2h0v.2h0v-.2h0v.2h0v.2h0v.2h0v.2h0v.2h0v.2h0v.2-.4h0v.2h0v.2h0v.2h0v.2h0v.2h0v.2h0v.2h0v-.4h0v.2h0v.2h0v.2h0v.2h0v.2h0v.2h0v.2h0v.2-.6h0v.2h0v.2h0v.2h0v.2h0v.2h0v.2h0v.2h0v.2-.6h0v.2h0v.2h0v.2h0v.2h0v.2h0v.2h0v.2h0v.2h0v-.6h0c0,3.7-2.9,6.7-6.6,6.7s-6.6-2.9-6.6-6.6h0v-.2h0v-.2h0v-.2h0v-.2h0v-.2h0v-.2h0v-.2h0v-.2h0v-.2.7h0v-.2h0v-.2h0v-.2h0v-.2h0v-.2h0v-.2h0v-.2h0v-.2.6h0v-.2h0v-.2h0v-.2h0v-.2h0v-.2h0v-.2h0v-.2h0v-.2.6h0v-.2h0v-.2h0v-.2h0v-.2h0v-.2h0v-.2h0v-.2h0v.4h0v-.2h0v-.2h0v-.2h0v-.2h0v-.2h0v-.2h0v-.2.4h0v-.2h0v-.2h0v-.2h0v-.2h0v-.2h0v-.2h0v.2h0v-.2h0v-.2h0v-.2h0v-.2h0v-.2h0v-.2h0v.2h0v-.2h0v-.2h0v-.2h0v-.2h0v-.2h0v-.2h0v.2h0v-.2h0v-.2h0v-.2h0v-.2h0v-.2h0v-.2.2h0v-.2h0v-.2h0v-.2h0v-.2h0v-.2h0v-.2.2h0v-.2h0v-.2h0v-.2h0v-.2h0v-.2h0v-.2.2h0v-.2h0v-.2h0v-.2h0v-.2h0v-.2h0v-.2h0v.2h0v-.2h0v-.2h0v-.2h0v-.2h0v-.2h0v-.2.2h0v-.2h0v-.2h0v-.2h0v-.2h0v-.2h0v-.2.2h0v-.2h0v-.2h0v-.2h0v-.2h0v-.2h0v-.2.2h0v-.2h0v-.2h0v-.2h0v-.2h0v-.2h0v-.2.2h0v-.2h0v-.2h0v-.2h0v-.2h0v-.2h0v-.2h0v.2h0v-.2h0v-.2h0v-.2h0v-.2h0v-.2h0v-.2.2h0v-.2h0v-.2h0v-.2h0v-.2h0v-.2h0v-.2.2h0v-.2h0v-.2h0v-.2h0v-.2h0v-.2h0v-.2.2h0v-.2h0v-.2h0v-.2h0v-.2h0v-.2h0v-.2.2h0v-.2h0v-.2h0v-.2h0v-.2h0v-.2h0v-.2h0v.2h0v-.2h0v-.2h0v-.2h0v-.2h0v-.2h0v-.2h0v.2h0v-.2h0v-.2h0v-.2h0v-.2h0c.2-14.7,3.2-17.7,6.8-17.7h0Z"/>
</svg>