<?xml version="1.0" encoding="UTF-8"?>
<svg id="Capa_1" data-name="Capa 1" xmlns="http://www.w3.org/2000/svg" version="1.1" viewBox="0 0 64 64">
  <defs>
    <style>
      .cls-1 {
        fill: #664fa1;
        stroke-width: 0px;
      }
    </style>
  </defs>
  <path class="cls-1" d="M48.2,0H15.8C7.1,0,0,7.1,0,15.8v32.4c0,8.7,7.1,15.8,15.8,15.8h32.4c8.7,0,15.8-7.1,15.8-15.8V15.8c0-8.7-7.1-15.8-15.8-15.8ZM57.9,48.2c0,5.4-4.4,9.7-9.7,9.7H15.8c-5.4,0-9.7-4.4-9.7-9.7V15.8c0-5.4,4.4-9.7,9.7-9.7h32.4c5.4,0,9.7,4.4,9.7,9.7v32.4Z"/>
  <path class="cls-1" d="M32,16.8c-8.4,0-15.2,6.8-15.2,15.2s6.8,15.2,15.2,15.2,15.2-6.8,15.2-15.2-6.8-15.2-15.2-15.2ZM32,41.2c-5.1,0-9.2-4.1-9.2-9.2s4.1-9.2,9.2-9.2,9.2,4.1,9.2,9.2-4.1,9.2-9.2,9.2Z"/>
  <path class="cls-1" d="M47.9,12.1c-2.2,0-4.1,1.8-4.1,4.1s1.8,4.1,4.1,4.1,4.1-1.8,4.1-4.1h0c0-2.3-1.9-4.1-4.1-4.1Z"/>
</svg>