<?xml version="1.0" encoding="UTF-8"?>
<svg id="Capa_1" data-name="Capa 1" xmlns="http://www.w3.org/2000/svg" version="1.1" viewBox="0 0 96 96">
  <defs>
    <style>
      .cls-1 {
        fill: #664fa1;
        stroke-width: 0px;
      }
    </style>
  </defs>
  <path class="cls-1" d="M84,16.3c0-.2-.2-.3-.4-.4C65.9-3.8,35.6-5.3,15.9,12.4c-1.2,1.1-2.4,2.3-3.5,3.5-.1.1-.3.3-.4.4-16,18.1-16,45.3,0,63.4.1.2.2.3.4.4,17.7,19.7,48,21.2,67.7,3.5,1.2-1.1,2.4-2.3,3.5-3.5l.3-.3c16.1-18.1,16.1-45.4,0-63.5h0ZM33.2,8.7c-2.5,3.4-4.5,7.2-6,11.1-2.6-.7-5.2-1.6-7.7-2.7,3.9-3.6,8.6-6.5,13.7-8.4ZM15.2,21.8c3.3,1.6,6.7,2.8,10.1,3.8-1.7,6.3-2.6,12.9-2.8,19.5H6.1c.6-8.6,3.8-16.7,9.1-23.3ZM6.1,51h16.4c.2,6.6,1.1,13.1,2.8,19.4-3.5.9-6.9,2.2-10.1,3.8-5.3-6.6-8.5-14.7-9.1-23.2ZM19.5,78.8c2.5-1.1,5.1-2,7.7-2.7,1.5,4,3.5,7.7,6,11.1-5.1-1.8-9.7-4.7-13.7-8.4ZM45,89.5c-4.7-1.6-8.9-7-11.9-14.7,3.9-.7,7.9-1.1,11.9-1.2,0,0,0,15.9,0,15.9ZM45,67.6c-4.6,0-9.2.7-13.8,1.5-1.6-5.9-2.5-12-2.7-18.1h16.5v16.6ZM45,45h-16.5c.2-6.1,1.1-12.2,2.7-18.1,4.5.9,9.1,1.4,13.8,1.5v16.6ZM45,22.4c-4-.1-7.9-.6-11.9-1.3,3-7.6,7.2-13,11.9-14.7,0,0,0,16,0,16ZM89.9,45h-16.5c-.2-6.6-1.1-13.1-2.8-19.5,3.5-.9,6.9-2.2,10.1-3.8,5.4,6.7,8.5,14.8,9.2,23.3ZM76.4,17.2c-2.5,1.1-5.1,2-7.7,2.7-1.5-4-3.5-7.7-6-11.1,5.1,1.8,9.8,4.7,13.7,8.4ZM51,6.5c4.7,1.6,8.9,7,11.9,14.7-3.9.7-7.9,1.1-11.9,1.3V6.5ZM51,28.5c4.6-.1,9.2-.7,13.8-1.5,1.6,5.9,2.5,12,2.7,18.1h-16.5s0-16.6,0-16.6ZM51,51h16.4c-.2,6.1-1.1,12.2-2.7,18.1-4.5-.9-9.1-1.4-13.8-1.5v-16.6h0ZM51,89.5v-15.9c4,0,7.9.6,11.9,1.3-3,7.5-7.2,12.9-11.9,14.6ZM62.8,87.3c2.5-3.4,4.5-7.2,6-11.1,2.6.7,5.2,1.6,7.7,2.7-4,3.6-8.6,6.5-13.7,8.4ZM80.8,74.2c-3.3-1.6-6.7-2.8-10.1-3.8,1.7-6.4,2.6-12.9,2.8-19.4h16.4c-.7,8.5-3.8,16.6-9.1,23.2h0Z"/>
</svg>