<?xml version="1.0" encoding="UTF-8"?>
<svg id="Capa_1" data-name="Capa 1" xmlns="http://www.w3.org/2000/svg" version="1.1" viewBox="0 0 65.8 75.5">
  <defs>
    <style>
      .cls-1 {
        fill: #664fa1;
        stroke-width: 0px;
      }
    </style>
  </defs>
  <path class="cls-1" d="M35,37.8c0,9.9-7.6,18-16.9,18S1.1,47.7,1.1,37.8s7.6-18,16.9-18,16.9,8.1,16.9,18h0ZM62.5,20.8c-1.2,0-2.1.9-2.1,2.1v29.6c0,1.2.9,2.1,2.1,2.1s2.1-.9,2.1-2.1v-29.6c0-1.2-.9-2.1-2.1-2.1ZM47.7,20.8c-1.5,0-4.3.7-6.4,5.6-1.3,3.1-2,7.1-2,11.3s.7,8.3,2,11.3c2.1,4.9,4.9,5.6,6.4,5.6s4.3-.7,6.4-5.6c1.3-3.1,2-7.1,2-11.3s-.7-8.3-2-11.3c-2.1-4.9-4.9-5.6-6.4-5.6Z"/>
</svg>