<?xml version="1.0" encoding="utf-8"?>
<!-- Generator: Adobe Illustrator 28.3.0, SVG Export Plug-In . SVG Version: 6.00 Build 0)  -->
<svg version="1.1" id="Capa_1" xmlns="http://www.w3.org/2000/svg" xmlns:xlink="http://www.w3.org/1999/xlink" x="0px" y="0px"
	 viewBox="0 0 65.8 75.5" style="enable-background:new 0 0 65.8 75.5;" xml:space="preserve">
<style type="text/css">
	.st0{fill:#DC2627;}
</style>
<g>
	<path class="st0" d="M65.8,12.1L65.8,12.1c0-0.1-0.1-0.2-0.1-0.2l-0.1-0.1c0-0.1-0.1-0.1-0.2-0.2l-0.1-0.1l-0.1-0.1l-15.7-11
		C49,0,48.2,0,47.7,0.4l-15,10.2L18.2,0.3c-0.5-0.4-1.3-0.4-1.8,0l-15.7,11c-0.1,0-0.1,0.1-0.2,0.1c0,0-0.1,0-0.1,0.1
		c-0.1,0.1-0.2,0.3-0.3,0.4V12C0,12.2,0,12.4,0,12.6v50.3c0,0.5,0.3,1,0.7,1.3l15.7,11h0.1l0.1,0.1h0.1c0.2,0.1,0.4,0.2,0.7,0.2
		s0.4-0.1,0.7-0.2h0.1c0,0,0.1,0,0.1-0.1h0.1l14.8-10.4L48,75.2h0.1l0.1,0.1h0.1c0.2,0.1,0.4,0.2,0.7,0.2c0.2,0,0.4-0.1,0.7-0.2h0.1
		c0,0,0.1,0,0.1-0.1H50l15.7-11l0.1-0.1L65.8,12.1L65.8,12.1z M3.2,15.7l11.3,7.9L3.2,31.5C3.2,31.5,3.2,15.7,3.2,15.7z M15.7,70.8
		L3.2,62.1V37.7l7.9,5.5l4.6,3.2V70.8z M47.1,70.9l-12.5-8.7V37.7l12.5,8.8V70.9z M47.7,24.9l13.8,9.7l-12.2,8.6l-0.7,0.5L33.9,33.3
		h-0.1c0,0-0.1,0-0.1-0.1h-0.1c0,0-0.1,0-0.1-0.1h-0.1c-0.1,0-0.1,0-0.2,0c-0.1,0-0.1,0-0.2,0c0,0,0,0-0.1,0s0,0-0.1,0s-0.1,0-0.2,0
		c-0.1,0-0.1,0-0.2,0h-0.1c0,0-0.1,0-0.1,0.1h-0.1c0,0-0.1,0-0.1,0.1h-0.1L17.3,43.7l-0.7-0.5L4.4,34.6l13.8-9.7
		c0.4-0.3,0.7-0.8,0.7-1.3s-0.3-1-0.7-1.3L4.4,12.6l12.9-9l14.5,10.2c0.5,0.4,1.3,0.4,1.8,0l15-10.2l12.9,9l-13.8,9.7
		c-0.4,0.3-0.7,0.8-0.7,1.3S47.3,24.6,47.7,24.9z"/>
</g>
</svg>
