<?xml version="1.0" encoding="utf-8"?>
<!-- Generator: Adobe Illustrator 28.2.0, SVG Export Plug-In . SVG Version: 6.00 Build 0)  -->
<svg version="1.1" id="Capa_1" xmlns="http://www.w3.org/2000/svg" xmlns:xlink="http://www.w3.org/1999/xlink" x="0px" y="0px"
	 viewBox="0 0 131.4 131.4" style="enable-background:new 0 0 131.4 131.4;" xml:space="preserve">
<style type="text/css">
	.st0{fill-rule:evenodd;clip-rule:evenodd;fill:#F67513;}
</style>
<path class="st0" d="M26.3,0C11.8,0,0,11.8,0,26.3v78.8c0,14.5,11.8,26.3,26.3,26.3h78.8c14.5,0,26.3-11.8,26.3-26.3V26.3
	c0-14.5-11.8-26.3-26.3-26.3H26.3z M13.1,26.3c0-7.3,5.9-13.1,13.1-13.1h78.8c7.3,0,13.1,5.9,13.1,13.1v78.8
	c0,7.3-5.9,13.1-13.1,13.1H26.3c-7.3,0-13.1-5.9-13.1-13.1V26.3z M46,59.1c0-3.6-2.9-6.6-6.6-6.6c-3.6,0-6.6,2.9-6.6,6.6v39.4
	c0,3.6,2.9,6.6,6.6,6.6c3.6,0,6.6-2.9,6.6-6.6V59.1z M49.3,36.1c0,5.4-4.4,9.9-9.9,9.9s-9.9-4.4-9.9-9.9s4.4-9.9,9.9-9.9
	S49.3,30.7,49.3,36.1z M65.7,52.5c2.2,0,4.2,1.1,5.4,2.8c3.4-1.8,7.1-2.8,11-2.8c14.2,0,23,12.6,23,23.5v0v0v0v0v0v0.1v0v0.1v0.1
	v0.1v0.1v0.1v0.1v0.1v0.1v0.1v0.1v0.1V77V77v0.1v0.1v0.1v0.1v0.1v0.1v0.1v0.1v0.1v0.1v0.1v0.1v0.1v0.1v0.1v0.1v0.1V78V78v0.1v0.1
	v0.1v0.1v0.1v0.1v0.1v0.1v0.1v0.1v0.1v0.1v0.1v0.1v0.1v0.1v0.1V79v0.1v0.1v0.1v0.1v0.1v0.1v0.1v0.1v0.1v0.1v0.1v0.1v0.1v0.1v0.1v0.1
	V80V80v0.1v0.1v0.1v0.1v0.1v0.1v0.1v0.1v0.1v0.1v0.1v0.1v0.1v0.1v0.1v0.1V81V81v0.1v0.1v0.1v0.1v0.1v0.1v0.1v0.1v0.1v0.1v0.1v0.1
	v0.1v0.1v0.1V82V82v0.1v0.1v0.1v0.1v0.1v0.1v0.1v0.1v0.1v0.1v0.1v0.1v0.1v0.1v0.1V83V83v0.1v0.1v0.1v0.1v0.1v0.1v0.1v0.1v0.1v0.1
	v0.1v0.1v0.1v0.1v0.1V84V84v0.1v0.1v0.1v0.1v0.1v0.1v0.1v0.1v0.1v0.1v0.1v0.1v0.1v0.1v0.1V85V85v0.1v0.1v0.1v0.1v0.1v0.1v0.1v0.1
	v0.1v0.1v0.1v0.1v0.1v0.1v0.1V86V86v0.1v0.1v0.1v0.1v0.1v0.1v0.1v0.1v0.1v0.1v0.1v0.1v0.1v0.1v0.1V87V87v0.1v0.1v0.1v0.1v0.1v0.1
	v0.1v0.1v0.1v0.1v0.1v0.1v0.1v0.1v0.1v0.1V88V88v0.1v0.1v0.1v0.1v0.1v0.1v0.1v0.1v0.1v0.1v0.1v0.1v0.1v0.1v0.1v0.1V89v0.1v0.1v0.1
	v0.1v0.1v0.1v0.1v0.1v0.1v0.1v0.1v0.1v0.1v0.1v0.1v0.1v0.1V90V90v0.1v0.1v0.1v0.1v0.1v0.1v0.1v0.1v0.1v0.1v0.1v0.1v0.1v0.1v0.1v0.1
	V91V91v0.1v0.1v0.1v0.1v0.1v0.1v0.1v0.1v0.1v0.1v0.1v0.1v0.1v0.1v0.1v0.1v0.1v0.1V92v0v0.1v0v0v0v0v0v0v0v0v0v0v0v0v0v0v0v0v0v0v0v0
	v0v0v0v0v0v0v0v0v0v0v0v0v0v0v0v0v0v0v0v0v0v0v0v0v0v0v0v0v0v0v0v0v0v0v0v0v0v0v0v0v0v0v0v0v0v0v0v0v0v0v0v0v0v0v0v0v0v0v0v0v0v0v0
	v0v0v0v0v0v0v0v0v0v0v0v0v0v0v0v0v0v0v0v0v0v0v0v0v0v0v0v0v0v0v0v0v0v0v0v0v0v0v0v0v0v0v0v0v0v0v0v0v0v0v0v0v0v0v0v0v0v0v0v0v0v0v0
	v0v0v0v0v0v0v0v0v0v0v0v0v0v0v0v0v0v0v0v0v0v0v0v0v0v0v0v0v0v0v0v0v0v0v0v0v0v0v0v0v0v0v0v0v0v0v0v0v0v0v0v0v0v0v0v0v0v0v0v0v0v0v0
	v0v0v0v0v0v0v0v0v0v0v0v0v0v0l0,0c0,3.6-2.9,6.6-6.6,6.6c-3.6,0-6.6-2.9-6.6-6.6l0,0v0v0v0v0v0v0v0v0v0v0v0v0v0v0v0v0v0v0v0v0v0v0v0
	v0v0v0v0v0v0v0v0v0v0v0v0v0v0v0v0v0v0v0v0v0v0v0v0v0v0v0v0v0v0v0v0v0v0v0v0v0v0v0v0v0v0v0v0v0v0v0v0v0v0v0v0v0v0v0v0v0v0v0v0v0v0v0
	v0v0v0v0v0v0v0v0v0v0v0v0v0v0v0v0v0v0v0v0v0v0v0v0v0v0v0v0v0v0v0v0v0v0v0v0v0v0v0v0v0v0v0v0v0v0v0v0v0v0v0v0v0v0v0v0v0v0v0v0v0v0v0
	v0v0v0v0v0v0v0v0v0v0v0v0v0v0v0v0v0v0v0v0v0v0v0v0v0v0v0v0v0v0v0v0v0v0v0v0v0v0v0v0v0v0v0v0v0v0v0v0v0v0v0v0v0v0v0v0v0v0v0v0v0v0v0
	v0v0v0v0v0v0v0v0v0v0v0V92v0v-0.1v-0.1v-0.1v-0.1v-0.1v-0.1v-0.1v-0.1v-0.1v-0.1v-0.1v-0.1v-0.1v-0.1v-0.1v-0.1v-0.1v-0.1V91V91
	v-0.1v-0.1v-0.1v-0.1v-0.1v-0.1v-0.1v-0.1v-0.1v-0.1v-0.1v-0.1v-0.1v-0.1v-0.1v-0.1V90V90v-0.1v-0.1v-0.1v-0.1v-0.1v-0.1v-0.1v-0.1
	v-0.1v-0.1v-0.1v-0.1v-0.1v-0.1v-0.1v-0.1v-0.1V89v-0.1v-0.1v-0.1v-0.1v-0.1v-0.1v-0.1v-0.1v-0.1v-0.1v-0.1v-0.1v-0.1v-0.1v-0.1
	v-0.1V88V88v-0.1v-0.1v-0.1v-0.1v-0.1v-0.1v-0.1v-0.1v-0.1v-0.1v-0.1v-0.1v-0.1v-0.1v-0.1v-0.1V87V87v-0.1v-0.1v-0.1v-0.1v-0.1v-0.1
	v-0.1v-0.1v-0.1v-0.1v-0.1v-0.1v-0.1v-0.1v-0.1V86V86v-0.1v-0.1v-0.1v-0.1v-0.1v-0.1v-0.1v-0.1v-0.1v-0.1v-0.1v-0.1v-0.1v-0.1v-0.1
	V85V85v-0.1v-0.1v-0.1v-0.1v-0.1v-0.1v-0.1v-0.1v-0.1v-0.1v-0.1v-0.1v-0.1v-0.1v-0.1V84V84v-0.1v-0.1v-0.1v-0.1v-0.1v-0.1v-0.1v-0.1
	v-0.1v-0.1v-0.1v-0.1v-0.1v-0.1v-0.1V83V83v-0.1v-0.1v-0.1v-0.1v-0.1v-0.1v-0.1v-0.1v-0.1v-0.1v-0.1v-0.1v-0.1v-0.1v-0.1V82V82v-0.1
	v-0.1v-0.1v-0.1v-0.1v-0.1v-0.1v-0.1v-0.1v-0.1v-0.1v-0.1v-0.1v-0.1v-0.1V81V81v-0.1v-0.1v-0.1v-0.1v-0.1v-0.1v-0.1v-0.1v-0.1v-0.1
	v-0.1v-0.1v-0.1v-0.1v-0.1v-0.1V80V80v-0.1v-0.1v-0.1v-0.1v-0.1v-0.1v-0.1v-0.1v-0.1v-0.1v-0.1v-0.1v-0.1v-0.1v-0.1v-0.1V79v-0.1
	v-0.1v-0.1v-0.1v-0.1v-0.1v-0.1v-0.1v-0.1v-0.1v-0.1v-0.1v-0.1v-0.1v-0.1v-0.1v-0.1V78V78v-0.1v-0.1v-0.1v-0.1v-0.1v-0.1v-0.1v-0.1
	v-0.1v-0.1v-0.1v-0.1v-0.1v-0.1v-0.1v-0.1v-0.1V77V77v-0.1v-0.1v-0.1v-0.1v-0.1v-0.1v-0.1v-0.1v-0.1v-0.1v-0.1v-0.1v0v-0.1v0v0v0v0
	v0c0-5-4.3-10.3-9.9-10.3c-3.4,0-7.2,1.9-9.9,6.3v0v0.1v0.1v0.1v0.1v0.1v0.1v0.1v0.1v0.1v0.1v0.1v0.1v0.1V73V73v0.1v0.1v0.1v0.1v0.1
	v0.1v0.1v0.1v0.1v0.1v0.1v0.1V74V74v0.1v0.1v0.1v0.1v0.1v0.1v0.1v0.1v0.1v0.1v0.1v0.1V75V75v0.1v0.1v0.1v0.1v0.1v0.1v0.1v0.1v0.1
	v0.1v0.1v0.1V76V76v0.1v0.1v0.1v0.1v0.1v0.1v0.1v0.1v0.1v0.1v0.1v0.1V77v0.1v0.1v0.1v0.1v0.1v0.1v0.1v0.1v0.1v0.1v0.1v0.1v0.1V78
	v0.1v0.1v0.1v0.1v0.1v0.1v0.1v0.1v0.1v0.1v0.1v0.1V79V79v0.1v0.1v0.1v0.1v0.1v0.1v0.1v0.1v0.1v0.1v0.1v0.1V80v0.1v0.1v0.1v0.1v0.1
	v0.1v0.1v0.1v0.1v0.1v0.1v0.1V81V81v0.1v0.1v0.1v0.1v0.1v0.1v0.1v0.1v0.1v0.1v0.1v0.1V82v0.1v0.1v0.1v0.1v0.1v0.1v0.1v0.1v0.1v0.1
	v0.1v0.1v0.1V83v0.1v0.1v0.1v0.1v0.1v0.1v0.1v0.1v0.1v0.1v0.1v0.1V84V84v0.1v0.1v0.1v0.1v0.1v0.1v0.1v0.1v0.1v0.1v0.1v0.1V85V85v0.1
	v0.1v0.1v0.1v0.1v0.1v0.1v0.1v0.1v0.1v0.1v0.1V86V86v0.1v0.1v0.1v0.1v0.1v0.1v0.1v0.1v0.1v0.1v0.1v0.1v0.1V87v0.1v0.1v0.1v0.1v0.1
	v0.1v0.1v0.1v0.1v0.1v0.1v0.1v0.1V88V88v0.1v0.1v0.1v0.1v0.1v0.1v0.1v0.1v0.1v0.1v0.1v0.1v0.1V89V89v0.1v0.1v0.1v0.1v0.1v0.1v0.1
	v0.1v0.1v0.1v0.1v0.1v0.1v0.1V90v0.1v0.1v0.1v0.1v0.1v0.1v0.1v0.1v0.1v0.1v0.1v0.1v0.1v0.1v0.1V91v0.1v0.1v0.1v0.1v0.1v0.1v0.1v0.1
	v0.1v0.1v0.1v0.1v0.1v0.1v0.1v0.1V92v0.1v0.1v0.1v0.1v0.1v0.1v0.1v0.1v0.1v0.1v0.1v0.1v0.1v0.1v0.1v0.1V93V93v0.1v0.1v0.1v0.1v0.1
	v0.1v0.1v0.1v0.1v0.1v0.1v0.1v0.1v0.1v0.1v0.1v0.1V94V94v0v0.1v0v0v0v0v0v0v0v0v0v0v0v0v0v0v0v0v0v0v0v0v0v0v0v0v0v0v0v0v0v0v0v0v0
	v0v0v0v0v0v0v0v0v0v0v0v0v0v0v0v0v0v0v0v0v0v0v0v0v0v0v0v0v0v0v0v0v0v0v0v0v0v0v0v0v0v0v0v0v0v0v0v0v0v0v0v0v0v0v0v0v0v0v0v0v0v0v0
	v0v0v0v0v0v0v0v0v0v0v0v0v0v0v0v0v0v0v0v0v0v0v0v0v0v0v0v0v0v0v0v0v0v0v0v0v0v0v0v0v0v0v0v0v0v0v0v0v0v0v0v0v0v0v0v0v0v0v0v0v0v0v0
	v0v0l0,0c0,3.6-2.9,6.6-6.6,6.6s-6.6-2.9-6.6-6.6l0,0v0v0v0v0v0v0v0v0v0v0v0v0v0v0v0v0v0v0v0v0v0v0v0v0v0v0v0v0v0v0v0v0v0v0v0v0v0v0
	v0v0v0v0v0v0v0v0v0v0v0v0v0v0v0v0v0v0v0v0v0v0v0v0v0v0v0v0v0v0v0v0v0v0v0v0v0v0v0v0v0v0v0v0v0v0v0v0v0v0v0v0v0v0v0v0v0v0v0v0v0v0v0
	v0v0v0v0v0v0v0v0v0v0v0v0v0v0v0v0v0v0v0v0v0v0v0v0v0v0v0v0v0v0v0v0v0v0v0v0v0v0v0v0v0v0v0v0v0v0v0v0v0v0v0v0v0v0v0v0v0v0v0v0v-0.1v0
	V94v-0.1v-0.1v-0.1v-0.1v-0.1v-0.1v-0.1v-0.1v-0.1v-0.1v-0.1v-0.1v-0.1v-0.1v-0.1v-0.1v-0.1V93V93v-0.1v-0.1v-0.1v-0.1v-0.1v-0.1
	v-0.1v-0.1v-0.1v-0.1v-0.1v-0.1v-0.1v-0.1v-0.1v-0.1V92v-0.1v-0.1v-0.1v-0.1v-0.1v-0.1v-0.1v-0.1v-0.1v-0.1v-0.1v-0.1v-0.1v-0.1
	v-0.1v-0.1V91v-0.1v-0.1v-0.1v-0.1v-0.1v-0.1v-0.1v-0.1v-0.1v-0.1v-0.1v-0.1v-0.1v-0.1v-0.1V90v-0.1v-0.1v-0.1v-0.1v-0.1v-0.1v-0.1
	v-0.1v-0.1v-0.1v-0.1v-0.1v-0.1v-0.1V89V89v-0.1v-0.1v-0.1v-0.1v-0.1v-0.1v-0.1v-0.1v-0.1v-0.1v-0.1v-0.1v-0.1V88V88v-0.1v-0.1v-0.1
	v-0.1v-0.1v-0.1v-0.1v-0.1v-0.1v-0.1v-0.1v-0.1v-0.1V87v-0.1v-0.1v-0.1v-0.1v-0.1v-0.1v-0.1v-0.1v-0.1v-0.1v-0.1v-0.1v-0.1V86V86
	v-0.1v-0.1v-0.1v-0.1v-0.1v-0.1v-0.1v-0.1v-0.1v-0.1v-0.1v-0.1V85V85v-0.1v-0.1v-0.1v-0.1v-0.1v-0.1v-0.1v-0.1v-0.1v-0.1v-0.1v-0.1
	V84V84v-0.1v-0.1v-0.1v-0.1v-0.1v-0.1v-0.1v-0.1v-0.1v-0.1v-0.1v-0.1V83v-0.1v-0.1v-0.1v-0.1v-0.1v-0.1v-0.1v-0.1v-0.1v-0.1v-0.1
	v-0.1v-0.1V82v-0.1v-0.1v-0.1v-0.1v-0.1v-0.1v-0.1v-0.1v-0.1v-0.1v-0.1v-0.1V81V81v-0.1v-0.1v-0.1v-0.1v-0.1v-0.1v-0.1v-0.1v-0.1
	v-0.1v-0.1v-0.1V80v-0.1v-0.1v-0.1v-0.1v-0.1v-0.1v-0.1v-0.1v-0.1v-0.1v-0.1v-0.1V79V79v-0.1v-0.1v-0.1v-0.1v-0.1v-0.1v-0.1v-0.1
	v-0.1v-0.1v-0.1v-0.1V78v-0.1v-0.1v-0.1v-0.1v-0.1v-0.1v-0.1v-0.1v-0.1v-0.1v-0.1v-0.1v-0.1V77v-0.1v-0.1v-0.1v-0.1v-0.1v-0.1v-0.1
	v-0.1v-0.1v-0.1v-0.1v-0.1V76V76v-0.1v-0.1v-0.1v-0.1v-0.1v-0.1v-0.1v-0.1v-0.1v-0.1v-0.1v-0.1V75V75v-0.1v-0.1v-0.1v-0.1v-0.1v-0.1
	v-0.1v-0.1v-0.1v-0.1v-0.1v-0.1V74V74v-0.1v-0.1v-0.1v-0.1v-0.1v-0.1v-0.1v-0.1v-0.1v-0.1v-0.1v-0.1V73V73v-0.1v-0.1v-0.1v-0.1v-0.1
	v-0.1v-0.1v-0.1v-0.1v-0.1v-0.1v-0.1v-0.1V72V72v-0.1v-0.1v-0.1v-0.1v-0.1v-0.1v-0.1v-0.1v-0.1v-0.1v-0.1v-0.1v-0.1V71V71v-0.1v-0.1
	v-0.1v-0.1v-0.1v-0.1v-0.1v-0.1v-0.1v0v0v0v0v0v0v0v0v0v0v0v0v0v0v0v0v0v0v0v0v0v0v0v0v0v0v0v0v0v0v0v0v0v0v0v0v0v0v0v0v0v0v0v0v0v0
	v0v0v0v0v0v0v0v0v0v0v0v0v0v0v0v0v0v0v0v0v0v0v0v0v0v0v0v0v0v0v0v0v0v0v0v0v0v0v0v0v0v0v0v0v0v0v0v0v0v0v0v0v0v0v0v0v0v0v0v0v0v0v0
	v0v0v0v0v0v0v0v0v0v0v0v0v0v0v0v0v0v0v0v0v0v0v0v0v0v0v0v0v0v0v0v0v0v0v0v0v0v0v0v0v0v0v0v0v0v0v0v0v0v0v0v0v0v0v0v0v0v0v0v0v0v0v0
	v0v0v0v0v0v0v0v0v0v0v0v0v0v0v0v0v0v0v0v0v0v0v0v0v0v0v0v0v0v0v0v0v0v0v0v0v0v0v0v0v0v0v0v0v0v0v0v0v0v0v0v0v0v0v0v0v0v0v0v0v0v0v0
	v0v0v0v0v0v0v0v0v0v0v0v0v0v0v0v0v0v0v0v0v0v0v0v0v0v0v0v0v0v0v0v0v0v0v0v0v0v0v0v0v0v0v0v0v0v0v0v0v0v0v0v0v0v0v0v0v0v0v0v0v0v0v0
	v0v0v0v0v0v0v0v0v0v0v0v0v0v0v0v0v0v0v0v0v0v0v0v0v0v0v0v0v0v0v0v0v0v0v0v0v0v0v0v0v0v0v0v0v0v0v0v0v0v0v0v0v0v0v0v0v0v0v0v0v0v0v0
	v0v0v0v0v0v0v0v0v0v0v0v0v0v0v0v0v0v0v0v0v0v0v0v0v0v0v0v0v0v0v0v0v0v0v0v0v0v0v0v0v0v0v0v0v0v0v0v0v0v0v0v0v0v0v0v0v0v0v0v0v0v0v0
	v0v0v0v0v0v0v0v0v0v0v0v0v0v0v0v0v0v0v0v0v0v0v0v0v0v0v0v0v0v0v0v0v0v0v0v0v0v0v0v0v0v0v0v0v0v0v0v0v0v0v0v0v0v0v0v0v0v0v0v0v0v0v0
	v0v0v0v0v0v0v0v0v0v0v0v0v0v0v0v0v0v0v0v0v0v0v0l0,0C59.1,55.5,62.1,52.5,65.7,52.5z"/>
</svg>
