<?xml version="1.0" encoding="UTF-8"?>
<svg id="Capa_1" xmlns="http://www.w3.org/2000/svg" version="1.1" viewBox="0 0 1292.2 738.7">
  <!-- Generator: Adobe Illustrator 29.1.0, SVG Export Plug-In . SVG Version: 2.1.0 Build 142)  -->
  <defs>
    <style>
      .st0 {
        fill: #73193a;
      }

      .st1, .st2 {
        fill: #bf1523;
      }

      .st2 {
        font-family: Montserrat-Black, Montserrat;
        font-size: 112.8px;
        font-weight: 800;
      }

      .st3 {
        fill: none;
        stroke: #73193a;
        stroke-miterlimit: 10;
        stroke-width: 4.8px;
      }

      .st4 {
        fill: #1b8ca6;
      }
    </style>
  </defs>
  <path class="st4" d="M556,482.3c-6.9,0-13.3,2.6-18,7.1-4.8,4.5-8.1,11.1-8.1,18.9s3.4,14.5,8.1,18.9c.6.6,1.3,1.1,2,1.7l8.7,68c.2,1.4,1.5,2.6,3,2.6h2.1c.2,5.9,1.1,9.8,3.1,12.6,2.2,3,5.6,3.8,8.5,3.9,0,0,0,0,0,0,6.6.2,11.6-3.8,14.4-9.2,2.8-5.4,4.1-12.3,4.4-19.5.4-8.1.4-16.6,6.2-23.9,9.6-9.1,28.2-9.4,39.6-9.4,1.6,0,3.1-1.4,3.1-3s-1.5-3-3.1-3c-11.4,0-32.3-.7-44,11.1-6.4,7.5-7.5,18.7-7.9,27.9-.3,6.7-1.5,12.9-3.7,17-2.5,3.8-5.6,6-8.9,5.9-2.1,0-2.8-.2-3.7-1.4-.8-1.1-1.7-3.9-2-9.1h2.2c1.5,0,2.9-1.2,3.1-2.7l6.9-67.9c.7-.5,1.4-1.1,2.1-1.7,4.8-4.5,8.1-11.2,8.1-18.9s-3.4-14.4-8.1-18.9c-4.8-4.5-11.1-7.1-18-7.1h0ZM556,489.7c6.1,0,11.7,2.4,15.5,6,2.7,2.6,4.5,5.6,5.2,8.8-5.5,2.6-12.7,4.2-20.7,4.2s-15.2-1.6-20.8-4.2c.8-3.2,2.5-6.2,5.2-8.8,3.8-3.6,9.3-6,15.5-6ZM535,511c6.1,2.4,13.3,3.7,21,3.7s14.9-1.3,20.9-3.7c-.6,3.6-2.5,7-5.5,9.8-3.8,3.6-9.3,6-15.5,6s-11.7-2.4-15.5-6c-3-2.9-4.9-6.3-5.5-9.8ZM565.4,532.5l-6.2,60.9h-4.9l-7.7-60.9c2.9,1.1,6.1,1.7,9.4,1.7s6.5-.6,9.4-1.7Z"/>
  <path class="st4" d="M697.7,174.1v-18.7c0-4-3.2-7.2-7.2-7.2h-7.2c0-4-3.2-7.2-7.2-7.2h-7.2c-4,0-7.2,3.2-7.2,7.2h-7.2c-4,0-7.2,3.2-7.2,7.2h-7.2c-4,0-7.2,3.2-7.2,7.2v43.3c0,8.6,6,16,14.4,17.7v72.6c0,2,1.6,3.6,3.6,3.6s3.6-1.6,3.6-3.6v-72.2h14.4c2,0,3.6-1.6,3.6-3.6s-1.6-3.6-3.6-3.6h-18.1c-6,0-10.8-4.9-10.8-10.8v-18.7c1.2.4,2.4.6,3.6.7,2.7,0,5.2-1,7.2-2.8,2,1.8,4.6,2.8,7.2,2.8h.2c.9,6.2,6.2,10.8,12.5,10.8h16.3c2,0,3.6-1.6,3.6-3.6s-1.6-3.6-3.6-3.6h-16.3c-3,0-5.4-2.4-5.4-5.4s2.4-5.4,5.4-5.4h23.5c2,0,3.6,1.6,3.6,3.6v21.7c0,6-4.9,10.8-10.8,10.8h-3.6c-2,0-3.6,1.6-3.6,3.6s1.6,3.6,3.6,3.6v72.2c0,2,1.6,3.6,3.6,3.6s3.6-1.6,3.6-3.6v-72.6c8.4-1.7,14.4-9.1,14.4-17.7v-21.7c0-4.6-2.9-8.7-7.2-10.2ZM690.5,155.4v18.1h-7.2v-18.1h7.2ZM668.8,148.2h7.2v25.3h-7.2v-25.3ZM654.4,155.4h7.2v21.9c-.9.9-1.6,1.9-2.1,3-.5.2-1,.3-1.5.3-2,0-3.6-1.6-3.6-3.6v-21.7ZM643.5,180.7c-2,0-3.6-1.6-3.6-3.6v-14.4h7.2v14.4c0,2-1.6,3.6-3.6,3.6Z"/>
  <g>
    <path class="st1" d="M131.7,322.7c0-46.8,32.6-76.8,82.3-76.8s76,16.3,79.2,69.3h-53.5c-2.6-14.1-11.7-20.8-25.7-20.8s-26.2,10.5-26.2,28.3,11.8,28.3,26.2,28.3,23.2-6.9,25.7-21.3h53.5c-3.3,53.3-41.3,69.8-79.2,69.8s-82.3-30.2-82.3-76.8Z"/>
    <path class="st1" d="M301,322.7c0-46.8,32.1-76.8,83.3-76.8s83.2,30,83.2,76.8-32.1,76.8-83.2,76.8-83.3-30.2-83.3-76.8ZM411.6,322.7c0-19.2-13-28.3-27.3-28.3s-27.3,9.1-27.3,28.3,12.9,28.3,27.3,28.3,27.3-9.3,27.3-28.3Z"/>
    <path class="st1" d="M632.4,322.7c0,41.5-20.1,72-80.6,72h-76.5v-144.1h76.5c60.5,0,80.6,30.2,80.6,72ZM575.8,322.7c0-20.1-11.7-25-23.8-25h-20.1v49.9h20.1c12.2,0,23.8-5.1,23.8-24.9Z"/>
    <path class="st1" d="M640.9,250.7h56.4v144.1h-56.4v-144.1Z"/>
    <path class="st1" d="M707.7,250.7h64.5l35.2,65.2h5v-65.2h54.9v144.1h-62.9l-36.5-65.2h-5.1v65.2h-54.9v-144.1Z"/>
    <path class="st1" d="M1036.1,394.8h-28.1l-.9-16.5h-1c-10.3,12.3-27.8,21.3-52.1,21.3-44.6,0-79.1-30.2-79.1-76.8s32.2-76.8,84.2-76.8,73.1,17.7,77.3,58.1h-55.9c-1.2-3.3-8.2-9.6-20.1-9.6-17.7,0-29.5,10.5-29.5,28.3s12.3,28.3,27.6,28.3,18.3.7,23.3-12.5h-24.9v-25.7h79.1v82Z"/>
  </g>
  <path class="st1" d="M253.6,488.4h121.4v42.1h-70.7v8.9h68.1v35.9h-68.1v42.5h-50.7v-129.4Z"/>
  <path class="st1" d="M476.1,617.9l-15.1-30h-26v30h-50.7v-129.4h78.3c36.7,0,58.1,14.8,58.1,51.5s-7.1,28.8-16.8,36.5l21.9,41.5h-49.6ZM435,550.4h23.7c7.7,0,11.1-4,11.1-10s-3.4-10-11.1-10h-23.7v20Z"/>
  <path class="st1" d="M605,488.4h121.7v40.2h-71v8.6h68.3v31.9h-68.3v8.5h71v40.2h-121.7v-129.4Z"/>
  <path class="st1" d="M736,488.4h57.9l31.6,58.6h4.5v-58.6h49.3v129.4h-56.6l-32.8-58.6h-4.6v58.6h-49.3v-129.4Z"/>
  <path class="st1" d="M1029.7,553.2c0,37.3-18,64.7-72.4,64.7h-68.7v-129.4h68.7c54.4,0,72.4,27.1,72.4,64.7ZM978.8,553.2c0-18-10.5-22.5-21.4-22.5h-18v44.8h18c10.9,0,21.4-4.6,21.4-22.3Z"/>
  <path class="st1" d="M1034.3,572.4h45.5c0,6.5,5.7,10.3,22.3,10.5,13.9.3,19.1-2.9,19.1-6.2s1.1-5.2-9.7-6.5l-17.1-2.6c-24.5-3.7-57.3-4.3-57.3-40.7s21-42.8,65.3-42.8,66.9,9.2,65.5,49.5h-45.2c-1.2-6.5-7.2-10.3-21.4-10.3s-15.6,3.2-15.6,6.3-.3,5.1,7.2,6l13.6,2.2c26.4,4.3,65,2.8,65,41.1s-22.5,43.6-69.5,43.3c-48.2-.2-69.5-14-67.8-49.8Z"/>
  <g>
    <path class="st1" d="M399.9,420.9h11l7.3,34.3h1l8.7-34.3h9.1l8.8,34.3h1l7.3-34.3h11l-10.3,45.9h-14.8l-7.1-29h-1l-7.1,29h-14.7l-10.3-45.9Z"/>
    <path class="st1" d="M504.8,420.9h10.9v45.9h-10.9v-45.9Z"/>
    <path class="st1" d="M601.5,430.1h-17.2v36.8h-10.9v-36.8h-17.2v-9.1h45.3v9.1Z"/>
    <path class="st1" d="M686.5,420.9v45.9h-10.9v-18.4h-22.8v18.4h-10.9v-45.9h10.9v18.4h22.8v-18.4h10.9Z"/>
  </g>
  <path class="st3" d="M1186.6,550.4h28.3c8.2,0,14.8-6.6,14.8-14.8V212.7c0-8.2-6.6-14.8-14.8-14.8l-468.1.2v-.3c0-44.1-35.7-79.8-79.8-79.8s-79.8,35.7-79.8,79.8v.4s-509.6.3-509.6.3c-8.2,0-14.8,6.6-14.8,14.8v94.7c0,8.2,6.6,14.8,14.8,14.8h35.3"/>
  <g>
    <path class="st3" d="M1090.6,312.8h25.7c8.2,0,14.8,6.6,14.8,14.8v99.5c0,8.2-6.6,14.8-14.8,14.8h-402.7"/>
    <polygon class="st0" points="1094.8 327.2 1069.8 312.8 1094.8 298.4 1094.8 327.2"/>
  </g>
  <g>
    <path class="st3" d="M368.3,441.8h-163.8c-8.2,0-14.8,6.6-14.8,14.8v81.8c0,8.2,6.6,14.8,14.8,14.8h13.5"/>
    <polygon class="st0" points="213.9 567.6 238.8 553.2 213.9 538.7 213.9 567.6"/>
  </g>
  <text class="st2" transform="translate(162 618.4) rotate(-90)"><tspan x="0" y="0">8M</tspan></text>
</svg>