<?xml version="1.0" encoding="utf-8"?>
<!-- Generator: Adobe Illustrator 28.2.0, SVG Export Plug-In . SVG Version: 6.00 Build 0)  -->
<svg version="1.1" id="Capa_1" xmlns="http://www.w3.org/2000/svg" xmlns:xlink="http://www.w3.org/1999/xlink" x="0px" y="0px"
	 viewBox="0 0 96 96" style="enable-background:new 0 0 96 96;" xml:space="preserve">
<style type="text/css">
	.st0{fill:#FFFFFF;}
</style>
<g>
	<path class="st0" d="M84,16.3c-0.1-0.2-0.2-0.3-0.4-0.4c-17.7-19.7-48-21.2-67.7-3.5c-1.2,1.1-2.4,2.3-3.5,3.5
		c-0.1,0.1-0.3,0.3-0.4,0.4C-4,34.4-4,61.6,12,79.7c0.1,0.2,0.2,0.3,0.4,0.4c17.7,19.7,48,21.2,67.7,3.5c1.2-1.1,2.4-2.3,3.5-3.5
		c0.1-0.1,0.2-0.2,0.3-0.3C100,61.7,100,34.4,84,16.3z M33.2,8.7c-2.5,3.4-4.5,7.2-6,11.1c-2.6-0.7-5.2-1.6-7.7-2.7
		C23.4,13.5,28.1,10.6,33.2,8.7z M15.2,21.8c3.3,1.6,6.7,2.8,10.1,3.8c-1.7,6.3-2.6,12.9-2.8,19.5H6.1C6.7,36.5,9.9,28.4,15.2,21.8z
		 M6.1,51h16.4c0.2,6.6,1.1,13.1,2.8,19.4c-3.5,0.9-6.9,2.2-10.1,3.8C9.9,67.6,6.7,59.5,6.1,51z M19.5,78.8c2.5-1.1,5.1-2,7.7-2.7
		c1.5,4,3.5,7.7,6,11.1C28.1,85.4,23.5,82.5,19.5,78.8z M45,89.5c-4.7-1.6-8.9-7-11.9-14.7C37,74.1,41,73.7,45,73.6V89.5z M45,67.6
		c-4.6,0.1-9.2,0.7-13.8,1.5c-1.6-5.9-2.5-12-2.7-18.1H45V67.6z M45,45H28.5c0.2-6.1,1.1-12.2,2.7-18.1c4.5,0.9,9.1,1.4,13.8,1.5V45
		z M45,22.4c-4-0.1-7.9-0.6-11.9-1.3c3-7.6,7.2-13,11.9-14.7V22.4z M89.9,45H73.4c-0.2-6.6-1.1-13.1-2.8-19.5
		c3.5-0.9,6.9-2.2,10.1-3.8C86.1,28.4,89.2,36.5,89.9,45z M76.4,17.2c-2.5,1.1-5.1,2-7.7,2.7c-1.5-4-3.5-7.7-6-11.1
		C67.8,10.6,72.5,13.5,76.4,17.2z M51,6.5c4.7,1.6,8.9,7,11.9,14.7C59,21.9,55,22.3,51,22.5V6.5z M51,28.5c4.6-0.1,9.2-0.7,13.8-1.5
		c1.6,5.9,2.5,12,2.7,18.1H51V28.5z M51,51h16.4c-0.2,6.1-1.1,12.2-2.7,18.1c-4.5-0.9-9.1-1.4-13.8-1.5L51,51L51,51z M51,89.5V73.6
		c4,0.1,7.9,0.6,11.9,1.3C59.9,82.4,55.7,87.8,51,89.5z M62.8,87.3c2.5-3.4,4.5-7.2,6-11.1c2.6,0.7,5.2,1.6,7.7,2.7
		C72.5,82.5,67.9,85.4,62.8,87.3z M80.8,74.2c-3.3-1.6-6.7-2.8-10.1-3.8c1.7-6.4,2.6-12.9,2.8-19.4h16.4
		C89.2,59.5,86.1,67.6,80.8,74.2L80.8,74.2z"/>
</g>
</svg>
