<?xml version="1.0" encoding="utf-8"?>
<!-- Generator: Adobe Illustrator 28.2.0, SVG Export Plug-In . SVG Version: 6.00 Build 0)  -->
<svg version="1.1" id="Capa_1" xmlns="http://www.w3.org/2000/svg" xmlns:xlink="http://www.w3.org/1999/xlink" x="0px" y="0px"
	 viewBox="0 0 98 73.4" style="enable-background:new 0 0 98 73.4;" xml:space="preserve">
<style type="text/css">
	.st0{fill:#FFFFFF;}
</style>
<g>
	<g>
		<path class="st0" d="M56.3,67.8c0,1.8-1.6,3.3-3.7,3.3c-2,0-3.7-1.5-3.7-3.3s1.6-3.3,3.7-3.3c0.6,0,1.1,0.1,1.6,0.4V57l-9.7,1.5
			v11.6c0,1.8-1.6,3.3-3.7,3.3c-2,0-3.7-1.5-3.7-3.3s1.6-3.3,3.7-3.3c0.6,0,1.1,0.1,1.6,0.4v-14L56.1,51v16.8H56.3z"/>
	</g>
	<g>
		<path class="st0" d="M5.3,27c-1.5,0-2.9-0.6-3.9-1.8c-2-2.2-1.8-5.5,0.4-7.5c26.1-23.6,68.4-23.6,94.5,0c2.2,2,2.3,5.3,0.4,7.5
			c-2,2.2-5.3,2.3-7.5,0.4c-22.1-20-58.1-20-80.2,0C7.9,26.5,6.6,27,5.3,27z"/>
	</g>
	<g>
		<path class="st0" d="M17.3,38.9c-1.5,0-3-0.6-4-1.8c-1.9-2.2-1.7-5.6,0.5-7.5c19.4-16.9,51-16.9,70.5,0c2.2,1.9,2.5,5.3,0.5,7.5
			c-1.9,2.2-5.3,2.5-7.5,0.5c-15.6-13.5-40.9-13.5-56.5,0C19.7,38.5,18.5,38.9,17.3,38.9z"/>
	</g>
	<g>
		<path class="st0" d="M68.8,50.9c-1.2,0-2.3-0.4-3.3-1.1c-8.9-7.1-24.1-7.1-33,0c-2.3,1.8-5.6,1.4-7.5-0.9
			c-1.8-2.3-1.4-5.6,0.9-7.5c13-10.2,33.2-10.2,46.2,0c2.3,1.8,2.7,5.2,0.9,7.5C71.9,50.2,70.4,50.9,68.8,50.9z"/>
	</g>
</g>
</svg>
