<?xml version="1.0" encoding="utf-8"?>
<!-- Generator: Adobe Illustrator 28.2.0, SVG Export Plug-In . SVG Version: 6.00 Build 0)  -->
<svg version="1.1" id="Capa_1" xmlns="http://www.w3.org/2000/svg" xmlns:xlink="http://www.w3.org/1999/xlink" x="0px" y="0px"
	 viewBox="0 0 141.4 141.4" style="enable-background:new 0 0 141.4 141.4;" xml:space="preserve">
<style type="text/css">
	.st0{fill:#121D26;}
</style>
<path class="st0" d="M70.7,0C31.7,0,0,31.7,0,70.7s31.7,70.7,70.7,70.7s70.7-31.7,70.7-70.7S109.8,0,70.7,0z M89.4,128.4h-0.5
	c-0.8,0-1.6-0.3-2.3-0.8c-0.6-0.6-0.9-1.4-0.8-2.2v-8.3c0-2.8,0.1-5.5,0.1-8.3c0-2.1-0.3-4.1-0.9-6.1s-1.7-3.8-3.2-5.2
	c4.1-0.4,8.1-1.3,12-2.8c3.3-1.2,6.2-3.2,8.6-5.7s4.2-5.6,5.2-8.9c1.3-4.1,1.9-8.3,1.8-12.6c0-3-0.5-5.9-1.5-8.7
	c-1.1-2.8-2.6-5.4-4.7-7.6c0.4-1.1,0.8-2.3,1-3.4c0.2-1.2,0.3-2.4,0.3-3.6c0-1.5-0.2-3.1-0.5-4.6s-0.8-3-1.3-4.5
	c-0.2-0.1-0.4-0.1-0.7-0.1h-0.6c-1.4,0-2.7,0.2-4,0.7c-1.4,0.4-2.8,0.9-4.1,1.5c-1.3,0.6-2.6,1.3-3.9,2S87,40.7,86,41.3
	c-9.9-2.8-20.4-2.8-30.3,0c-1.1-0.7-2.2-1.5-3.4-2.1c-1.3-0.8-2.6-1.4-4-2c-1.3-0.6-2.7-1.1-4.2-1.5c-1.3-0.4-2.6-0.6-3.9-0.7h-0.6
	c-0.2,0-0.4,0-0.6,0.1c-0.6,1.5-1,3-1.4,4.5c-0.3,1.5-0.5,3-0.5,4.6c0,1.2,0.1,2.4,0.3,3.6c0.2,1.2,0.5,2.3,0.9,3.4
	c-2,2.2-3.6,4.8-4.7,7.6c-1,2.8-1.6,5.7-1.5,8.7c-0.1,4.2,0.5,8.4,1.7,12.5c1.1,3.3,2.8,6.4,5.2,8.9s5.4,4.4,8.6,5.7
	c3.8,1.5,7.9,2.4,12,2.8c-1.1,1-2.1,2.3-2.7,3.7c-0.6,1.4-1,2.9-1.2,4.4c-2.2,1-4.5,1.6-6.9,1.6c-2.2,0.1-4.4-0.5-6.3-1.8
	c-1.8-1.3-3.3-3-4.4-4.9c-0.5-0.8-1.1-1.5-1.7-2.3c-0.7-0.7-1.4-1.4-2.2-2s-1.6-1.1-2.5-1.4c-0.9-0.4-1.9-0.6-2.8-0.6
	c-0.2,0-0.5,0-0.7,0.1c-0.3,0-0.6,0-1,0.1c-0.3,0.1-0.5,0.2-0.8,0.4C26.2,94.8,26,95,26,95.3c0.1,0.6,0.4,1.1,0.8,1.4
	c0.5,0.4,1,0.8,1.4,1l0.2,0.1c0.8,0.6,1.5,1.3,2.3,2c0.7,0.6,1.3,1.2,1.8,1.9c0.5,0.7,1,1.4,1.4,2.2c0.4,0.8,0.9,1.7,1.4,2.7
	c1.1,2.8,3.1,5.2,5.6,6.7c2.7,1.4,5.7,2.1,8.7,2.1c1,0,2.1-0.1,3.1-0.2c1-0.2,2-0.3,3-0.5V125c0.1,1.6-1.2,3-2.8,3.1
	c-0.1,0-0.2,0-0.3,0h-0.4C20.2,118.1,2.8,83.9,13,52S57.5,2.7,89.4,13s49.3,44.5,39,76.3C122.4,107.8,107.9,122.4,89.4,128.4
	L89.4,128.4L89.4,128.4z"/>
</svg>
