<?xml version="1.0" encoding="utf-8"?>
<!-- Generator: Adobe Illustrator 28.2.0, SVG Export Plug-In . SVG Version: 6.00 Build 0)  -->
<svg version="1.1" id="Capa_1" xmlns="http://www.w3.org/2000/svg" xmlns:xlink="http://www.w3.org/1999/xlink" x="0px" y="0px"
	 viewBox="0 0 131.4 131.4" style="enable-background:new 0 0 131.4 131.4;" xml:space="preserve">
<style type="text/css">
	.st0{fill-rule:evenodd;clip-rule:evenodd;fill:#121D26;}
</style>
<path class="st0" d="M26.3,0C11.8,0,0,11.8,0,26.3v78.8c0,14.5,11.8,26.3,26.3,26.3h78.8c14.5,0,26.3-11.8,26.3-26.3V26.3
	c0-14.5-11.8-26.3-26.3-26.3H26.3z M13.1,26.3c0-7.3,5.9-13.1,13.1-13.1H105c7.3,0,13.1,5.9,13.1,13.1v78.8
	c0,7.3-5.9,13.1-13.1,13.1H26.3c-7.3,0-13.1-5.9-13.1-13.1L13.1,26.3L13.1,26.3z M46,59.1c0-3.6-2.9-6.6-6.6-6.6
	c-3.6,0-6.6,2.9-6.6,6.6v39.4c0,3.6,2.9,6.6,6.6,6.6c3.6,0,6.6-2.9,6.6-6.6V59.1z M49.3,36.1c0,5.4-4.4,9.9-9.9,9.9
	s-9.9-4.4-9.9-9.9s4.4-9.9,9.9-9.9S49.3,30.7,49.3,36.1z M65.7,52.5c2.2,0,4.2,1.1,5.4,2.8c3.4-1.8,7.1-2.8,11-2.8
	c14.2,0,23,12.6,23,23.5l0,0l0,0l0,0l0,0l0,0v0.1l0,0v0.1v0.1v0.1v0.1v0.1v0.1v0.1v0.1V77v0.1v0.1V77l0,0v0.1v0.1v0.1v0.1v0.1v0.1
	v0.1v0.1v0.1V78v0.1v0.1v0.1v0.1v0.1v0.1v0.1V78l0,0v0.1v0.1v0.1v0.1v0.1v0.1v0.1v0.1v0.1V79v0.1v0.1v0.1v0.1v0.1v0.1v0.1V79v0.1
	v0.1v0.1v0.1v0.1v0.1v0.1v0.1v0.1V80v0.1v0.1v0.1v0.1v0.1v0.1V80l0,0v0.1v0.1v0.1v0.1v0.1v0.1v0.1v0.1v0.1V81v0.1v0.1v0.1v0.1v0.1
	v0.1V81l0,0v0.1v0.1v0.1v0.1v0.1v0.1v0.1v0.1v0.1V82v0.1v0.1v0.1v0.1v0.1V82l0,0v0.1v0.1v0.1v0.1v0.1v0.1v0.1v0.1v0.1V83v0.1v0.1
	v0.1v0.1v0.1V83l0,0v0.1v0.1v0.1v0.1v0.1v0.1v0.1v0.1v0.1V84v0.1v0.1v0.1v0.1v0.1V84l0,0v0.1v0.1v0.1v0.1v0.1v0.1v0.1v0.1v0.1V85
	v0.1v0.1v0.1v0.1v0.1V85l0,0v0.1v0.1v0.1v0.1v0.1v0.1v0.1v0.1v0.1V86v0.1v0.1v0.1v0.1v0.1V86l0,0v0.1v0.1v0.1v0.1v0.1v0.1v0.1v0.1
	v0.1V87v0.1v0.1v0.1v0.1v0.1V87l0,0v0.1v0.1v0.1v0.1v0.1v0.1v0.1v0.1v0.1V88v0.1v0.1v0.1v0.1v0.1v0.1V88l0,0v0.1v0.1v0.1v0.1v0.1
	v0.1v0.1v0.1v0.1V89v0.1v0.1v0.1v0.1v0.1v0.1V89v0.1v0.1v0.1v0.1v0.1v0.1v0.1v0.1v0.1V90v0.1v0.1v0.1v0.1v0.1v0.1v0.1V90l0,0v0.1
	v0.1v0.1v0.1v0.1v0.1v0.1v0.1v0.1V91v0.1v0.1v0.1v0.1v0.1v0.1V91l0,0v0.1v0.1v0.1v0.1v0.1v0.1v0.1v0.1v0.1V92v0.1v0.1v0.1v0.1v0.1
	v0.1v0.1v0.1V92l0,0v0.1l0,0l0,0l0,0l0,0l0,0l0,0l0,0l0,0l0,0l0,0l0,0l0,0l0,0l0,0l0,0l0,0l0,0l0,0l0,0l0,0l0,0l0,0l0,0l0,0l0,0l0,0
	l0,0l0,0l0,0l0,0l0,0l0,0l0,0l0,0l0,0l0,0l0,0l0,0l0,0l0,0l0,0l0,0l0,0l0,0l0,0l0,0l0,0l0,0l0,0l0,0l0,0l0,0l0,0l0,0l0,0l0,0l0,0
	l0,0l0,0l0,0l0,0l0,0l0,0l0,0l0,0l0,0l0,0l0,0l0,0l0,0l0,0l0,0l0,0l0,0l0,0l0,0l0,0l0,0l0,0l0,0l0,0l0,0l0,0l0,0l0,0l0,0l0,0l0,0
	l0,0l0,0l0,0l0,0l0,0l0,0l0,0l0,0l0,0l0,0l0,0l0,0l0,0l0,0l0,0l0,0l0,0l0,0l0,0l0,0l0,0l0,0l0,0l0,0l0,0l0,0l0,0l0,0l0,0l0,0l0,0
	l0,0l0,0l0,0l0,0l0,0l0,0l0,0l0,0l0,0l0,0l0,0l0,0l0,0l0,0l0,0l0,0l0,0l0,0l0,0l0,0l0,0l0,0l0,0l0,0l0,0l0,0l0,0l0,0l0,0l0,0l0,0
	l0,0l0,0l0,0l0,0l0,0l0,0l0,0l0,0l0,0l0,0l0,0l0,0l0,0l0,0l0,0l0,0l0,0l0,0l0,0l0,0l0,0l0,0l0,0l0,0l0,0l0,0l0,0l0,0l0,0l0,0l0,0
	l0,0l0,0l0,0l0,0l0,0l0,0l0,0l0,0l0,0l0,0l0,0l0,0l0,0l0,0l0,0l0,0l0,0l0,0l0,0l0,0l0,0l0,0l0,0l0,0l0,0l0,0l0,0l0,0l0,0l0,0l0,0
	l0,0l0,0l0,0l0,0l0,0l0,0l0,0l0,0l0,0l0,0l0,0l0,0c0,3.6-2.9,6.6-6.6,6.6c-3.6,0-6.6-2.9-6.6-6.6l0,0l0,0l0,0l0,0l0,0l0,0l0,0l0,0
	l0,0l0,0l0,0l0,0l0,0l0,0l0,0l0,0l0,0l0,0l0,0l0,0l0,0l0,0l0,0l0,0l0,0l0,0l0,0l0,0l0,0l0,0l0,0l0,0l0,0l0,0l0,0l0,0l0,0l0,0l0,0
	l0,0l0,0l0,0l0,0l0,0l0,0l0,0l0,0l0,0l0,0l0,0l0,0l0,0l0,0l0,0l0,0l0,0l0,0l0,0l0,0l0,0l0,0l0,0l0,0l0,0l0,0l0,0l0,0l0,0l0,0l0,0
	l0,0l0,0l0,0l0,0l0,0l0,0l0,0l0,0l0,0l0,0l0,0l0,0l0,0l0,0l0,0l0,0l0,0l0,0l0,0l0,0l0,0l0,0l0,0l0,0l0,0l0,0l0,0l0,0l0,0l0,0l0,0
	l0,0l0,0l0,0l0,0l0,0l0,0l0,0l0,0l0,0l0,0l0,0l0,0l0,0l0,0l0,0l0,0l0,0l0,0l0,0l0,0l0,0l0,0l0,0l0,0l0,0l0,0l0,0l0,0l0,0l0,0l0,0
	l0,0l0,0l0,0l0,0l0,0l0,0l0,0l0,0l0,0l0,0l0,0l0,0l0,0l0,0l0,0l0,0l0,0l0,0l0,0l0,0l0,0l0,0l0,0l0,0l0,0l0,0l0,0l0,0l0,0l0,0l0,0
	l0,0l0,0l0,0l0,0l0,0l0,0l0,0l0,0l0,0l0,0l0,0l0,0l0,0l0,0l0,0l0,0l0,0l0,0l0,0l0,0l0,0l0,0l0,0l0,0l0,0l0,0l0,0l0,0l0,0l0,0l0,0
	l0,0l0,0l0,0l0,0l0,0l0,0l0,0l0,0l0,0l0,0l0,0l0,0l0,0l0,0l0,0l0,0l0,0l0,0l0,0l0,0l0,0l0,0l0,0l0,0l0,0l0,0l0,0l0,0l0,0l0,0V92l0,0
	v-0.1v-0.1v-0.1v-0.1v-0.1v-0.1v-0.1v-0.1v-0.1V91v-0.1v-0.1v-0.1v-0.1v-0.1v-0.1v-0.1v-0.1V91l0,0v-0.1v-0.1v-0.1v-0.1v-0.1v-0.1
	v-0.1v-0.1v-0.1V90v-0.1v-0.1v-0.1v-0.1v-0.1v-0.1V90l0,0v-0.1v-0.1v-0.1v-0.1v-0.1v-0.1v-0.1v-0.1v-0.1V89v-0.1v-0.1v-0.1v-0.1
	v-0.1v-0.1v-0.1V89v-0.1v-0.1v-0.1v-0.1v-0.1v-0.1v-0.1v-0.1v-0.1V88v-0.1v-0.1v-0.1v-0.1v-0.1v-0.1V88l0,0v-0.1v-0.1v-0.1v-0.1
	v-0.1v-0.1v-0.1v-0.1v-0.1V87v-0.1v-0.1v-0.1v-0.1v-0.1v-0.1V87l0,0v-0.1v-0.1v-0.1v-0.1v-0.1v-0.1v-0.1v-0.1v-0.1V86v-0.1v-0.1
	v-0.1v-0.1v-0.1V86l0,0v-0.1v-0.1v-0.1v-0.1v-0.1v-0.1v-0.1v-0.1v-0.1V85v-0.1v-0.1v-0.1v-0.1v-0.1V85l0,0v-0.1v-0.1v-0.1v-0.1v-0.1
	v-0.1v-0.1v-0.1v-0.1V84v-0.1v-0.1v-0.1v-0.1v-0.1V84l0,0v-0.1v-0.1v-0.1v-0.1v-0.1v-0.1v-0.1v-0.1v-0.1V83v-0.1v-0.1v-0.1v-0.1
	v-0.1V83l0,0v-0.1v-0.1v-0.1v-0.1v-0.1v-0.1v-0.1v-0.1v-0.1V82v-0.1v-0.1v-0.1v-0.1v-0.1V82l0,0v-0.1v-0.1v-0.1v-0.1v-0.1v-0.1v-0.1
	v-0.1v-0.1V81v-0.1v-0.1v-0.1v-0.1v-0.1V81l0,0v-0.1v-0.1v-0.1v-0.1v-0.1v-0.1v-0.1v-0.1v-0.1V80v-0.1v-0.1v-0.1v-0.1v-0.1v-0.1V80
	l0,0v-0.1v-0.1v-0.1v-0.1v-0.1v-0.1v-0.1v-0.1v-0.1V79v-0.1v-0.1v-0.1v-0.1v-0.1v-0.1V79v-0.1v-0.1v-0.1v-0.1v-0.1v-0.1v-0.1v-0.1
	v-0.1V78v-0.1v-0.1v-0.1v-0.1v-0.1v-0.1v-0.1V78l0,0v-0.1v-0.1v-0.1v-0.1v-0.1v-0.1v-0.1v-0.1v-0.1V77v-0.1v-0.1v-0.1v-0.1v-0.1
	v-0.1v-0.1V77l0,0v-0.1v-0.1v-0.1v-0.1v-0.1v-0.1v-0.1v-0.1v-0.1V76v-0.1v-0.1l0,0v-0.1l0,0l0,0l0,0l0,0l0,0c0-5-4.3-10.3-9.9-10.3
	c-3.4,0-7.2,1.9-9.9,6.3l0,0v0.1v0.1V72v0.1v0.1v0.1v0.1v0.1v0.1v0.1v0.1v0.1V73l0,0l0,0v0.1v0.1v0.1v0.1v0.1v0.1v0.1v0.1v0.1V74
	v0.1v0.1V74l0,0v0.1v0.1v0.1v0.1v0.1v0.1v0.1v0.1v0.1V75v0.1v0.1V75l0,0v0.1v0.1v0.1v0.1v0.1v0.1v0.1v0.1v0.1V76v0.1v0.1V76l0,0v0.1
	v0.1v0.1v0.1v0.1v0.1v0.1v0.1v0.1V77v0.1v0.1V77v0.1v0.1v0.1v0.1v0.1v0.1v0.1v0.1v0.1V78v0.1v0.1v0.1V78v0.1v0.1v0.1v0.1v0.1v0.1
	v0.1v0.1v0.1V79v0.1v0.1V79l0,0v0.1v0.1v0.1v0.1v0.1v0.1v0.1v0.1v0.1V80v0.1v0.1V80v0.1v0.1v0.1v0.1v0.1v0.1v0.1v0.1v0.1V81v0.1v0.1
	V81l0,0v0.1v0.1v0.1v0.1v0.1v0.1v0.1v0.1v0.1V82v0.1v0.1V82v0.1v0.1v0.1v0.1v0.1v0.1v0.1v0.1v0.1V83v0.1v0.1v0.1V83v0.1v0.1v0.1v0.1
	v0.1v0.1v0.1v0.1v0.1V84v0.1v0.1V84l0,0v0.1v0.1v0.1v0.1v0.1v0.1v0.1v0.1v0.1V85v0.1v0.1V85l0,0v0.1v0.1v0.1v0.1v0.1v0.1v0.1v0.1
	v0.1V86v0.1v0.1V86l0,0v0.1v0.1v0.1v0.1v0.1v0.1v0.1v0.1v0.1V87v0.1v0.1v0.1V87v0.1v0.1v0.1v0.1v0.1v0.1v0.1v0.1v0.1V88v0.1v0.1v0.1
	V88l0,0v0.1v0.1v0.1v0.1v0.1v0.1v0.1v0.1v0.1V89v0.1v0.1v0.1V89l0,0v0.1v0.1v0.1v0.1v0.1v0.1v0.1v0.1v0.1V90v0.1v0.1v0.1v0.1V90v0.1
	v0.1v0.1v0.1v0.1v0.1v0.1v0.1v0.1V91v0.1v0.1v0.1v0.1v0.1V91v0.1v0.1v0.1v0.1v0.1v0.1v0.1v0.1v0.1V92v0.1v0.1v0.1v0.1v0.1v0.1V92
	v0.1v0.1v0.1v0.1v0.1v0.1v0.1v0.1v0.1V93v0.1v0.1v0.1v0.1v0.1v0.1V93l0,0v0.1v0.1v0.1v0.1v0.1v0.1v0.1v0.1v0.1V94v0.1v0.1v0.1v0.1
	v0.1v0.1v0.1V94l0,0l0,0v0.1l0,0l0,0l0,0l0,0l0,0l0,0l0,0l0,0l0,0l0,0l0,0l0,0l0,0l0,0l0,0l0,0l0,0l0,0l0,0l0,0l0,0l0,0l0,0l0,0l0,0
	l0,0l0,0l0,0l0,0l0,0l0,0l0,0l0,0l0,0l0,0l0,0l0,0l0,0l0,0l0,0l0,0l0,0l0,0l0,0l0,0l0,0l0,0l0,0l0,0l0,0l0,0l0,0l0,0l0,0l0,0l0,0
	l0,0l0,0l0,0l0,0l0,0l0,0l0,0l0,0l0,0l0,0l0,0l0,0l0,0l0,0l0,0l0,0l0,0l0,0l0,0l0,0l0,0l0,0l0,0l0,0l0,0l0,0l0,0l0,0l0,0l0,0l0,0
	l0,0l0,0l0,0l0,0l0,0l0,0l0,0l0,0l0,0l0,0l0,0l0,0l0,0l0,0l0,0l0,0l0,0l0,0l0,0l0,0l0,0l0,0l0,0l0,0l0,0l0,0l0,0l0,0l0,0l0,0l0,0
	l0,0l0,0l0,0l0,0l0,0l0,0l0,0l0,0l0,0l0,0l0,0l0,0l0,0l0,0l0,0l0,0l0,0l0,0l0,0l0,0l0,0l0,0l0,0l0,0l0,0l0,0l0,0l0,0l0,0l0,0l0,0
	l0,0l0,0l0,0l0,0l0,0l0,0l0,0l0,0l0,0l0,0l0,0l0,0l0,0c0,3.6-2.9,6.6-6.6,6.6s-6.6-2.9-6.6-6.6l0,0l0,0l0,0l0,0l0,0l0,0l0,0l0,0l0,0
	l0,0l0,0l0,0l0,0l0,0l0,0l0,0l0,0l0,0l0,0l0,0l0,0l0,0l0,0l0,0l0,0l0,0l0,0l0,0l0,0l0,0l0,0l0,0l0,0l0,0l0,0l0,0l0,0l0,0l0,0l0,0
	l0,0l0,0l0,0l0,0l0,0l0,0l0,0l0,0l0,0l0,0l0,0l0,0l0,0l0,0l0,0l0,0l0,0l0,0l0,0l0,0l0,0l0,0l0,0l0,0l0,0l0,0l0,0l0,0l0,0l0,0l0,0
	l0,0l0,0l0,0l0,0l0,0l0,0l0,0l0,0l0,0l0,0l0,0l0,0l0,0l0,0l0,0l0,0l0,0l0,0l0,0l0,0l0,0l0,0l0,0l0,0l0,0l0,0l0,0l0,0l0,0l0,0l0,0
	l0,0l0,0l0,0l0,0l0,0l0,0l0,0l0,0l0,0l0,0l0,0l0,0l0,0l0,0l0,0l0,0l0,0l0,0l0,0l0,0l0,0l0,0l0,0l0,0l0,0l0,0l0,0l0,0l0,0l0,0l0,0
	l0,0l0,0l0,0l0,0l0,0l0,0l0,0l0,0l0,0l0,0l0,0l0,0l0,0l0,0l0,0l0,0l0,0l0,0l0,0l0,0l0,0l0,0l0,0l0,0l0,0l0,0l0,0l0,0l0,0V94l0,0l0,0
	v-0.1v-0.1v-0.1v-0.1v-0.1v-0.1v-0.1v-0.1v-0.1V93v-0.1v-0.1v-0.1v-0.1v-0.1v-0.1v-0.1V93l0,0v-0.1v-0.1v-0.1v-0.1v-0.1v-0.1v-0.1
	v-0.1v-0.1V92v-0.1v-0.1v-0.1v-0.1v-0.1v-0.1V92v-0.1v-0.1v-0.1v-0.1v-0.1v-0.1v-0.1v-0.1v-0.1V91v-0.1v-0.1v-0.1v-0.1v-0.1v-0.1V91
	v-0.1v-0.1v-0.1v-0.1v-0.1v-0.1v-0.1v-0.1v-0.1V90v-0.1v-0.1v-0.1v-0.1v-0.1V90v-0.1v-0.1v-0.1v-0.1v-0.1v-0.1v-0.1v-0.1v-0.1V89
	v-0.1v-0.1v-0.1v-0.1V89l0,0v-0.1v-0.1v-0.1v-0.1v-0.1v-0.1v-0.1v-0.1v-0.1V88v-0.1v-0.1v-0.1V88l0,0v-0.1v-0.1v-0.1v-0.1v-0.1v-0.1
	v-0.1v-0.1v-0.1V87v-0.1v-0.1v-0.1V87v-0.1v-0.1v-0.1v-0.1v-0.1v-0.1v-0.1v-0.1v-0.1V86v-0.1v-0.1v-0.1V86l0,0v-0.1v-0.1v-0.1v-0.1
	v-0.1v-0.1v-0.1v-0.1v-0.1V85v-0.1v-0.1V85l0,0v-0.1v-0.1v-0.1v-0.1v-0.1v-0.1v-0.1v-0.1v-0.1V84v-0.1v-0.1V84l0,0v-0.1v-0.1v-0.1
	v-0.1v-0.1v-0.1v-0.1v-0.1v-0.1V83v-0.1v-0.1V83v-0.1v-0.1v-0.1v-0.1v-0.1v-0.1v-0.1v-0.1v-0.1V82v-0.1v-0.1v-0.1V82v-0.1v-0.1v-0.1
	v-0.1v-0.1v-0.1v-0.1v-0.1v-0.1V81v-0.1v-0.1V81l0,0v-0.1v-0.1v-0.1v-0.1v-0.1v-0.1v-0.1v-0.1v-0.1V80v-0.1v-0.1V80v-0.1v-0.1v-0.1
	v-0.1v-0.1v-0.1v-0.1v-0.1v-0.1V79v-0.1v-0.1V79l0,0v-0.1v-0.1v-0.1v-0.1v-0.1v-0.1v-0.1v-0.1v-0.1V78v-0.1v-0.1V78v-0.1v-0.1v-0.1
	v-0.1v-0.1v-0.1v-0.1v-0.1v-0.1V77v-0.1v-0.1v-0.1V77v-0.1v-0.1v-0.1v-0.1v-0.1v-0.1v-0.1v-0.1v-0.1V76v-0.1v-0.1V76l0,0v-0.1v-0.1
	v-0.1v-0.1v-0.1v-0.1v-0.1v-0.1v-0.1V75v-0.1v-0.1V75l0,0v-0.1v-0.1v-0.1v-0.1v-0.1v-0.1v-0.1v-0.1v-0.1V74v-0.1v-0.1V74l0,0v-0.1
	v-0.1v-0.1v-0.1v-0.1v-0.1v-0.1v-0.1v-0.1V73v-0.1v-0.1V73l0,0v-0.1v-0.1v-0.1v-0.1v-0.1v-0.1v-0.1v-0.1v-0.1V72v-0.1v-0.1v-0.1V72
	l0,0v-0.1v-0.1v-0.1v-0.1v-0.1v-0.1v-0.1v-0.1v-0.1V71v-0.1v-0.1v-0.1V71l0,0v-0.1v-0.1v-0.1v-0.1v-0.1v-0.1v-0.1v-0.1v-0.1l0,0l0,0
	l0,0l0,0l0,0l0,0l0,0l0,0l0,0l0,0l0,0l0,0l0,0l0,0l0,0l0,0l0,0l0,0l0,0l0,0l0,0l0,0l0,0l0,0l0,0l0,0l0,0l0,0l0,0l0,0l0,0l0,0l0,0
	l0,0l0,0l0,0l0,0l0,0l0,0l0,0l0,0l0,0l0,0l0,0l0,0l0,0l0,0l0,0l0,0l0,0l0,0l0,0l0,0l0,0l0,0l0,0l0,0l0,0l0,0l0,0l0,0l0,0l0,0l0,0
	l0,0l0,0l0,0l0,0l0,0l0,0l0,0l0,0l0,0l0,0l0,0l0,0l0,0l0,0l0,0l0,0l0,0l0,0l0,0l0,0l0,0l0,0l0,0l0,0l0,0l0,0l0,0l0,0l0,0l0,0l0,0
	l0,0l0,0l0,0l0,0l0,0l0,0l0,0l0,0l0,0l0,0l0,0l0,0l0,0l0,0l0,0l0,0l0,0l0,0l0,0l0,0l0,0l0,0l0,0l0,0l0,0l0,0l0,0l0,0l0,0l0,0l0,0
	l0,0l0,0l0,0l0,0l0,0l0,0l0,0l0,0l0,0l0,0l0,0l0,0l0,0l0,0l0,0l0,0l0,0l0,0l0,0l0,0l0,0l0,0l0,0l0,0l0,0l0,0l0,0l0,0l0,0l0,0l0,0
	l0,0l0,0l0,0l0,0l0,0l0,0l0,0l0,0l0,0l0,0l0,0l0,0l0,0l0,0l0,0l0,0l0,0l0,0l0,0l0,0l0,0l0,0l0,0l0,0l0,0l0,0l0,0l0,0l0,0l0,0l0,0
	l0,0l0,0l0,0l0,0l0,0l0,0l0,0l0,0l0,0l0,0l0,0l0,0l0,0l0,0l0,0l0,0l0,0l0,0l0,0l0,0l0,0l0,0l0,0l0,0l0,0l0,0l0,0l0,0l0,0l0,0l0,0
	l0,0l0,0l0,0l0,0l0,0l0,0l0,0l0,0l0,0l0,0l0,0l0,0l0,0l0,0l0,0l0,0l0,0l0,0l0,0l0,0l0,0l0,0l0,0l0,0l0,0l0,0l0,0l0,0l0,0l0,0l0,0
	l0,0l0,0l0,0l0,0l0,0l0,0l0,0l0,0l0,0l0,0l0,0l0,0l0,0l0,0l0,0l0,0l0,0l0,0l0,0l0,0l0,0l0,0l0,0l0,0l0,0l0,0l0,0l0,0l0,0l0,0l0,0
	l0,0l0,0l0,0l0,0l0,0l0,0l0,0l0,0l0,0l0,0l0,0l0,0l0,0l0,0l0,0l0,0l0,0l0,0l0,0l0,0l0,0l0,0l0,0l0,0l0,0l0,0l0,0l0,0l0,0l0,0l0,0
	l0,0l0,0l0,0l0,0l0,0l0,0l0,0l0,0l0,0l0,0l0,0l0,0l0,0l0,0l0,0l0,0l0,0l0,0l0,0l0,0l0,0l0,0l0,0l0,0l0,0l0,0l0,0l0,0l0,0l0,0l0,0
	l0,0l0,0l0,0l0,0l0,0l0,0l0,0l0,0l0,0l0,0l0,0l0,0l0,0l0,0l0,0l0,0l0,0l0,0l0,0l0,0l0,0l0,0l0,0l0,0l0,0l0,0l0,0l0,0l0,0l0,0l0,0
	l0,0l0,0l0,0l0,0l0,0l0,0l0,0l0,0l0,0l0,0l0,0l0,0l0,0l0,0l0,0l0,0l0,0l0,0l0,0l0,0l0,0l0,0l0,0l0,0l0,0l0,0l0,0l0,0l0,0l0,0l0,0
	l0,0l0,0l0,0l0,0l0,0l0,0l0,0l0,0l0,0l0,0l0,0l0,0l0,0l0,0l0,0l0,0l0,0l0,0l0,0l0,0l0,0l0,0l0,0l0,0l0,0l0,0l0,0l0,0l0,0l0,0l0,0
	l0,0l0,0l0,0l0,0l0,0l0,0l0,0l0,0l0,0l0,0l0,0l0,0l0,0l0,0l0,0l0,0l0,0l0,0l0,0l0,0l0,0l0,0l0,0l0,0l0,0l0,0l0,0l0,0l0,0l0,0l0,0
	l0,0l0,0l0,0l0,0l0,0l0,0l0,0l0,0l0,0l0,0l0,0l0,0l0,0l0,0l0,0l0,0l0,0l0,0l0,0l0,0l0,0l0,0l0,0l0,0l0,0l0,0l0,0l0,0l0,0l0,0l0,0
	l0,0l0,0l0,0l0,0l0,0l0,0l0,0l0,0l0,0l0,0l0,0l0,0l0,0C59.1,55.5,62.1,52.5,65.7,52.5z"/>
</svg>
